<?xml version="1.0" encoding="utf-8"?>
<!DOCTYPE svg PUBLIC "-//W3C//DTD SVG 1.1//EN" "http://www.w3.org/Graphics/SVG/1.1/DTD/svg11.dtd">
<svg version="1.1" id="Layer_1" xmlns="http://www.w3.org/2000/svg" xmlns:xlink="http://www.w3.org/1999/xlink" x="0px" y="0px"
	 width="99.603px" height="81.531px" viewBox="0 0 99.603 81.531" enable-background="new 0 0 99.603 81.531" xml:space="preserve">
<g>
	<defs>
		<rect id="SVGID_1_" y="0" width="99.603" height="81.531"/>
	</defs>
	<clipPath id="SVGID_2_">
		<use xlink:href="#SVGID_1_"  overflow="visible"/>
	</clipPath>
	<path clip-path="url(#SVGID_2_)" fill="#ffffff" d="M96.263,40.639c-1.21-10.242-5.787-19.719-13.19-27.123
		C74.356,4.8,62.768,0,50.442,0c-12.326,0-23.916,4.8-32.63,13.516c-7.283,7.282-11.831,16.569-13.13,26.616
		C1.997,40.798,0,43.229,0,46.116c0,3.021,2.184,5.539,5.056,6.064c1.435,6.983,4.872,13.402,10.03,18.561
		c6.958,6.958,16.209,10.79,26.05,10.79c9.839,0,19.091-3.832,26.049-10.79c5.163-5.163,8.604-11.59,10.035-18.583
		c2.81-0.574,4.929-3.065,4.929-6.041c0-2.881-1.987-5.306-4.662-5.979c-0.538-3.301-1.518-6.489-2.911-9.493
		c0.503-0.049,1.013-0.075,1.53-0.075c6.641,0,12.322,4.178,14.56,10.042c-2.011,1.017-3.394,3.102-3.394,5.504
		c0,3.4,2.766,6.166,6.164,6.166c3.4,0,6.166-2.766,6.166-6.166C99.602,43.735,98.244,41.666,96.263,40.639 M59.489,36.304
		C55.474,25.439,45.012,17.673,32.77,17.673c-4.599,0-8.947,1.097-12.796,3.042c5.741-4.785,13.121-7.668,21.161-7.668
		c11.645,0,21.903,6.044,27.805,15.16C64.972,29.797,61.651,32.667,59.489,36.304 M70.811,31.495
		c0.992,2.002,1.788,4.118,2.362,6.323c-1.705-1.247-3.805-1.984-6.074-1.984c-1.062,0-2.087,0.162-3.052,0.461
		C65.812,34.139,68.143,32.462,70.811,31.495 M58.528,48.541c-1.337,0-2.426-1.088-2.426-2.425s1.089-2.425,2.426-2.425
		s2.425,1.088,2.425,2.425S59.865,48.541,58.528,48.541 M23.613,30.569c6.662,0,12.359,4.204,14.581,10.098
		c-1.953,1.036-3.286,3.088-3.286,5.449c0,3.4,2.766,6.166,6.165,6.166c3.4,0,6.166-2.766,6.166-6.166
		c0-3.109-2.313-5.686-5.309-6.104c-2.57-7.654-9.809-13.183-18.317-13.183c-3.017,0-5.873,0.695-8.42,1.934
		c4.486-4.535,10.708-7.349,17.576-7.349c11.59,0,21.34,8.015,24.008,18.792c-2.55,0.757-4.415,3.119-4.415,5.911
		c0,2.247,1.209,4.217,3.01,5.295c-2.513,5.235-7.866,8.858-14.05,8.858c-6.282,0-11.706-3.738-14.168-9.105
		c1.589-1.116,2.63-2.962,2.63-5.047c0-3.398-2.766-6.165-6.166-6.165c-0.251,0-0.498,0.017-0.742,0.046
		c-1.881-2.524-4.888-4.162-8.27-4.162c-1.062,0-2.087,0.162-3.052,0.461C14.415,32.802,18.758,30.569,23.613,30.569 M41.074,43.691
		c1.337,0,2.425,1.088,2.425,2.425s-1.088,2.425-2.425,2.425c-1.337,0-2.425-1.088-2.425-2.425
		C38.649,44.778,39.737,43.691,41.074,43.691 M23.62,43.691c1.337,0,2.425,1.088,2.425,2.425s-1.088,2.425-2.425,2.425
		s-2.425-1.088-2.425-2.425C21.194,44.778,22.282,43.691,23.62,43.691 M3.74,46.116c0-1.337,1.088-2.425,2.425-2.425
		s2.425,1.088,2.425,2.425s-1.088,2.425-2.425,2.425S3.74,47.453,3.74,46.116 M41.135,77.79c-15.848,0-29.127-11.197-32.35-26.094
		c2.093-0.987,3.546-3.116,3.546-5.58c0-1.906-0.869-3.612-2.232-4.743c1.177-1.114,2.764-1.798,4.509-1.798
		c1.881,0,3.578,0.795,4.777,2.067c-1.188,1.124-1.931,2.714-1.931,4.474c0,3.38,2.734,6.132,6.107,6.164
		c2.955,6.89,9.803,11.729,17.762,11.729c7.969,0,14.825-4.851,17.772-11.754c3.135-0.288,5.599-2.93,5.599-6.139
		c0-1.873-0.842-3.553-2.164-4.685c1.183-1.148,2.794-1.856,4.568-1.856c1.85,0,3.521,0.769,4.717,2.002
		c-1.228,1.128-1.998,2.745-1.998,4.539c0,2.507,1.504,4.667,3.656,5.63C70.232,66.618,56.965,77.79,41.135,77.79 M75.982,48.541
		c-1.338,0-2.426-1.088-2.426-2.425s1.088-2.425,2.426-2.425c1.337,0,2.425,1.088,2.425,2.425
		C78.408,47.453,77.32,48.541,75.982,48.541 M76.104,26.828c-1.159,0-2.297,0.103-3.401,0.3c-1.529-2.528-3.375-4.889-5.519-7.032
		c-6.958-6.958-16.209-10.79-26.05-10.79c-6.761,0-13.244,1.809-18.896,5.198C29.738,7.812,39.622,3.74,50.44,3.74
		c19.134,0,35.348,12.739,40.608,30.18C87.505,29.594,82.122,26.828,76.104,26.828 M93.436,48.541c-1.337,0-2.425-1.088-2.425-2.425
		s1.088-2.425,2.425-2.425c1.338,0,2.426,1.088,2.426,2.425C95.862,47.453,94.774,48.541,93.436,48.541"/>
</g>
</svg>
