<?xml version="1.0" encoding="utf-8"?>
<svg version="1.1" id="Layer_1" xmlns="http://www.w3.org/2000/svg" xmlns:xlink="http://www.w3.org/1999/xlink" x="0px" y="0px"
	 viewBox="-216.6 387.6 41.8 35.6" enable-background="new -216.6 387.6 41.8 35.6" xml:space="preserve">
<g>
	<path fill="#ffffff" d="M-203,393h27.1c0.6,0,1.1-0.5,1.1-1.1s-0.5-1.1-1.1-1.1H-203c-0.6,0-1.1,0.5-1.1,1.1S-203.6,393-203,393z"/>
	<path fill="#ffffff" d="M-175.9,404.2H-203c-0.6,0-1.1,0.5-1.1,1.1c0,0.6,0.5,1.1,1.1,1.1h27.1c0.6,0,1.1-0.5,1.1-1.1
		C-174.8,404.7-175.3,404.2-175.9,404.2z"/>
	<path fill="#ffffff" d="M-175.9,417.7H-203c-0.6,0-1.1,0.5-1.1,1.1s0.5,1.1,1.1,1.1h27.1c0.6,0,1.1-0.5,1.1-1.1S-175.3,417.7-175.9,417.7z"/>
	<path fill="#ffffff" d="M-211.4,414.7c-0.4-0.4-1.1-0.4-1.6,0l-3.2,3.2c-0.2,0.2-0.3,0.5-0.3,0.8c0,0.3,0.1,0.6,0.3,0.8l3.2,3.2
		c0.2,0.2,0.5,0.3,0.8,0.3c0.3,0,0.6-0.1,0.8-0.3l3.2-3.2c0.2-0.2,0.3-0.5,0.3-0.8c0-0.3-0.1-0.6-0.3-0.8L-211.4,414.7z
		 M-212.2,420.4l-1.7-1.7l1.7-1.7l1.7,1.7L-212.2,420.4z"/>
	<path fill="#ffffff" d="M-211.4,401.3c-0.4-0.4-1.1-0.4-1.6,0l-3.2,3.2c-0.4,0.4-0.4,1.1,0,1.6l3.2,3.2c0.2,0.2,0.5,0.3,0.8,0.3
		c0.3,0,0.6-0.1,0.8-0.3l3.2-3.2c0.4-0.4,0.4-1.1,0-1.6L-211.4,401.3z M-212.2,407l-1.7-1.7l1.7-1.7l1.7,1.7L-212.2,407z"/>
	<path fill="#ffffff" d="M-211.4,387.9c-0.4-0.4-1.1-0.4-1.6,0l-3.2,3.2c-0.2,0.2-0.3,0.5-0.3,0.8c0,0.3,0.1,0.6,0.3,0.8l3.2,3.2
		c0.2,0.2,0.5,0.3,0.8,0.3c0.3,0,0.6-0.1,0.8-0.3l3.2-3.2c0.2-0.2,0.3-0.5,0.3-0.8c0-0.3-0.1-0.6-0.3-0.8L-211.4,387.9z
		 M-212.2,393.6l-1.7-1.7l1.7-1.7l1.7,1.7L-212.2,393.6z"/>
</g>
</svg>